<svg xmlns="http://www.w3.org/2000/svg" xmlns:xlink="http://www.w3.org/1999/xlink" width="2000" zoomAndPan="magnify" viewBox="0 0 1500 1499.999933" height="2000" preserveAspectRatio="xMidYMid meet" version="1.0"><defs><clipPath id="618a880669"><path d="M 278.511719 150 L 1221.261719 150 L 1221.261719 929 L 278.511719 929 Z M 278.511719 150 " clip-rule="nonzero"/></clipPath></defs><rect x="-150" width="1800" fill="#ffffff" y="-149.999993" height="1799.99992" fill-opacity="1"/><rect x="-150" width="1800" fill="#093902" y="-149.999993" height="1799.99992" fill-opacity="1"/><g clip-path="url(#618a880669)"><path fill="#ffffff" d="M 911.945312 917.898438 C 902.886719 915.070312 881.90625 906.394531 872.457031 902.121094 C 841.386719 888.039062 805.703125 863.09375 780.320312 840.257812 C 780.117188 840.054688 779.882812 837.554688 778.46875 836.242188 C 763.847656 822.882812 748.863281 809.597656 736.070312 794.28125 C 732.207031 793.121094 720.855469 809.394531 717.84375 812.636719 C 713.699219 817.089844 707.417969 825.121094 703.992188 828.417969 C 689.035156 842.910156 655.800781 866.335938 636.882812 875.785156 C 627.019531 880.703125 610.621094 886.800781 600.042969 890.253906 C 493.027344 925.082031 365.703125 887.730469 306.800781 789.3125 C 239.535156 676.917969 298.640625 536 416.492188 490.175781 C 416.289062 471.230469 414.71875 451.871094 415.796875 432.925781 C 424.550781 281.347656 551 155.15625 703.296875 150.546875 C 833.40625 146.609375 949.070312 232.925781 985.597656 356.621094 C 1001.019531 359.195312 1016.464844 358.9375 1031.960938 361.589844 C 1157.613281 383.035156 1232.914062 498.027344 1217.105469 622.238281 C 1216.207031 629.242188 1211.828125 641.675781 1212.113281 647.339844 C 1212.574219 656.324219 1218.652344 672.234375 1219.914062 682.96875 C 1234.816406 809.289062 1143.328125 914.347656 1019.21875 927.066406 C 989.253906 930.128906 940.777344 926.832031 911.972656 917.875 Z M 911.945312 917.898438 " fill-opacity="1" fill-rule="nonzero"/></g><path fill="#ffffff" d="M 780.347656 840.234375 L 788.25 987.636719 L 872.457031 902.09375 C 881.878906 906.367188 902.886719 915.070312 911.945312 917.875 L 793.476562 1067.3125 L 817.1875 1350.847656 L 677.683594 1350.847656 C 686.410156 1251.453125 695.730469 1152.035156 706.621094 1052.871094 C 704.457031 1046.71875 700.519531 1041.390625 697.171875 1035.882812 C 667.15625 986.582031 631.039062 939.035156 600.015625 890.199219 C 610.621094 886.75 627.019531 880.648438 636.855469 875.734375 L 710.53125 975.746094 L 714.601562 931.648438 L 703.96875 828.339844 C 707.367188 825.042969 713.648438 817.039062 717.816406 812.558594 C 720.855469 809.289062 732.207031 793.019531 736.042969 794.203125 C 748.839844 809.546875 763.820312 822.804688 778.441406 836.164062 C 779.859375 837.453125 780.066406 839.976562 780.296875 840.179688 Z M 780.347656 840.234375 " fill-opacity="1" fill-rule="nonzero"/></svg>